<mxfile
  host="Electron" 
  agent="Mozilla/5.0 (Macintosh; Intel Mac OS X 10_15_7) AppleWebKit/537.36 (KHTML, like Gecko) draw.io/25.0.2 Chrome/128.0.6613.186 Electron/32.2.5 Safari/537.36" 
  version="25.0.2"
  >
  <diagram
    name="-"
    >
    <mxGraphModel
      grid="1" 
      gridSize="10" 
      guides="1" 
      tooltips="1" 
      connect="1" 
      arrows="1" 
      fold="1" 
      page="1" 
      pageScale="1" 
      pageWidth="1" 
      pageHeight="1" 
      math="0" 
      shadow="0"
      >
      <root>
        <mxCell
          id="page"
          />
        <mxCell
          id="root" 
          parent="page"
          />
        <mxCell
          style="verticalAlign=top;aspect=fixed;align=center;spacingLeft=5;spacingRight=5;spacingBottom=5;strokeColor=none;" 
          id="shape_" 
          parent="root" 
          value=" " 
          vertex="1"
          >
          <mxGeometry
            as="geometry" 
            width="360" 
            height="220" 
            x="0" 
            y="0"
            />
          </mxCell>
        <mxCell
          style="verticalAlign=top;aspect=fixed;align=center;spacingLeft=5;spacingRight=5;spacingBottom=5;noLabel=1;opacity=0;" 
          id="columns" 
          parent="shape_" 
          value="Columns" 
          vertex="1"
          >
          <mxGeometry
            as="geometry" 
            width="160" 
            height="160" 
            x="30" 
            y="30"
            />
          </mxCell>
        <mxCell
          style="rounded=1;whiteSpace=wrap;verticalAlign=middle;align=center;" 
          id="entity_a" 
          parent="columns" 
          value="A" 
          vertex="1"
          >
          <mxGeometry
            width="20" 
            height="20" 
            as="geometry" 
            x="30" 
            y="30"
            />
          </mxCell>
        <mxCell
          style="rounded=1;whiteSpace=wrap;verticalAlign=middle;align=center;" 
          id="entity_b" 
          parent="columns" 
          value="B" 
          vertex="1"
          >
          <mxGeometry
            width="20" 
            height="20" 
            as="geometry" 
            x="110" 
            y="30"
            />
          </mxCell>
        <mxCell
          style="verticalAlign=top;aspect=fixed;align=center;spacingLeft=5;spacingRight=5;spacingBottom=5;noLabel=1;opacity=0;" 
          id="rows" 
          parent="shape_" 
          value="Rows" 
          vertex="1"
          >
          <mxGeometry
            as="geometry" 
            width="80" 
            height="160" 
            x="190" 
            y="30"
            />
          </mxCell>
        <mxCell
          style="rounded=1;whiteSpace=wrap;verticalAlign=middle;align=center;" 
          id="entity_c" 
          parent="rows" 
          value="C" 
          vertex="1"
          >
          <mxGeometry
            width="20" 
            height="20" 
            as="geometry" 
            x="30" 
            y="30"
            />
          </mxCell>
        <mxCell
          style="rounded=1;whiteSpace=wrap;verticalAlign=middle;align=center;" 
          id="entity_d" 
          parent="rows" 
          value="D" 
          vertex="1"
          >
          <mxGeometry
            width="20" 
            height="20" 
            as="geometry" 
            x="30" 
            y="110"
            />
          </mxCell>
        <mxCell
          style="verticalAlign=top;aspect=fixed;align=center;spacingLeft=5;spacingRight=5;spacingBottom=5;noLabel=1;opacity=0;" 
          id="columns_2" 
          parent="shape_" 
          value="Columns" 
          vertex="1"
          >
          <mxGeometry
            as="geometry" 
            width="60" 
            height="160" 
            x="270" 
            y="30"
            />
          </mxCell>
        <mxCell
          style="verticalAlign=top;aspect=fixed;align=center;spacingLeft=5;spacingRight=5;spacingBottom=5;noLabel=1;opacity=0;" 
          id="rows_2" 
          parent="columns_2" 
          value="Rows" 
          vertex="1"
          >
          <mxGeometry
            width="30" 
            height="100" 
            as="geometry" 
            x="0" 
            y="30"
            />
          </mxCell>
        <mxCell
          style="rounded=1;whiteSpace=wrap;verticalAlign=middle;align=center;" 
          id="entity_e" 
          parent="rows_2" 
          value="E" 
          vertex="1"
          >
          <mxGeometry
            width="20" 
            height="20" 
            as="geometry" 
            x="30" 
            y="17.5"
            />
          </mxCell>
        <mxCell
          style="rounded=1;whiteSpace=wrap;verticalAlign=middle;align=center;strokeColor=transparent;fontColor=transparent;" 
          id="invisible_g" 
          parent="rows_2" 
          value="G" 
          vertex="1"
          >
          <mxGeometry
            width="10" 
            height="10" 
            as="geometry" 
            x="30" 
            y="72.5"
            />
          </mxCell>
        <mxCell
          style="verticalAlign=top;aspect=fixed;align=center;spacingLeft=5;spacingRight=5;spacingBottom=5;noLabel=1;opacity=0;" 
          id="rows_3" 
          parent="columns_2" 
          value="Rows" 
          vertex="1"
          >
          <mxGeometry
            width="30" 
            height="100" 
            as="geometry" 
            x="30" 
            y="30"
            />
          </mxCell>
        <mxCell
          style="rounded=1;whiteSpace=wrap;verticalAlign=middle;align=center;strokeColor=transparent;fontColor=transparent;" 
          id="invisible_h" 
          parent="rows_3" 
          value="H" 
          vertex="1"
          >
          <mxGeometry
            width="10" 
            height="10" 
            as="geometry" 
            x="30" 
            y="17.5"
            />
          </mxCell>
        <mxCell
          style="rounded=1;whiteSpace=wrap;verticalAlign=middle;align=center;" 
          id="entity_f" 
          parent="rows_3" 
          value="F" 
          vertex="1"
          >
          <mxGeometry
            width="20" 
            height="20" 
            as="geometry" 
            x="30" 
            y="62.5"
            />
          </mxCell>
        <mxCell
          id="a" 
          source="entity_a" 
          target="entity_b" 
          parent="root" 
          edge="1" 
          style="endArrow=block;html=1;endFill=1;startArrow=none;startFill=0;edgeStyle=elbowEdgeStyle;elbow=vertical;dashed=1;"
          >
          <mxGeometry
            relative="1" 
            as="geometry"
            />
          </mxCell>
        <mxCell
          id="a_2" 
          source="entity_c" 
          target="entity_d" 
          parent="root" 
          edge="1" 
          style="endArrow=block;html=1;endFill=1;startArrow=none;startFill=0;edgeStyle=elbowEdgeStyle;elbow=vertical;dashed=1;"
          >
          <mxGeometry
            relative="1" 
            as="geometry"
            />
          </mxCell>
        <mxCell
          id="a_3" 
          source="entity_e" 
          target="entity_f" 
          parent="root" 
          edge="1" 
          style="endArrow=block;html=1;endFill=1;startArrow=none;startFill=0;edgeStyle=elbowEdgeStyle;elbow=vertical;dashed=1;"
          >
          <mxGeometry
            relative="1" 
            as="geometry"
            />
          </mxCell>
        </root>
      </mxGraphModel>
    </diagram>
  </mxfile>